<?xml version="1.0" encoding="utf-8"?>
<!-- Generator: Adobe Illustrator 22.0.1, SVG Export Plug-In . SVG Version: 6.00 Build 0)  -->
<svg version="1.1" id="Layer_1" xmlns="http://www.w3.org/2000/svg" xmlns:xlink="http://www.w3.org/1999/xlink" x="0px" y="0px"
	 viewBox="0 0 14.6 2.6" style="enable-background:new 0 0 14.6 2.6;" xml:space="preserve">
<style type="text/css">
	.st0{fill:#FF9800;}
</style>
<title>rating-4_8</title>
<path class="st0" d="M2.6,0.9l-0.2,0l-0.1,0L2,0.8l-0.2,0L1.7,0.6L1.7,0.4L1.5,0.1C1.5,0,1.4,0,1.3,0c0,0-0.1,0.1-0.1,0.1L1.1,0.3
	L1.1,0.4L1,0.6L0.9,0.8l-0.2,0l-0.1,0l-0.2,0l-0.3,0C0.1,0.9,0,0.9,0,1c0,0.1,0,0.1,0.1,0.1l0.5,0.5L0.5,2.4c0,0,0,0,0,0
	c0,0,0,0.1,0,0.1c0,0,0.1,0.1,0.1,0.1c0,0,0.1,0,0.1,0L1,2.4l0,0l0.2-0.1l0.1,0l0.1-0.1l0.1,0l0.1,0l0.2,0.1L2,2.6c0,0,0.1,0,0.1,0
	c0,0,0.1,0,0.1-0.1c0,0,0-0.1,0-0.1c0,0,0,0,0,0L2.1,1.7l0.1-0.1l0.4-0.4l0,0c0,0,0.1-0.1,0.1-0.1C2.7,0.9,2.6,0.9,2.6,0.9z"/>
<path class="st0" d="M5.5,0.9l-0.2,0l-0.1,0L5,0.8l-0.2,0L4.7,0.6L4.6,0.4L4.5,0.1C4.4,0,4.3,0,4.3,0c0,0-0.1,0.1-0.1,0.1L4.1,0.3
	L4,0.4L3.9,0.5L3.8,0.8l-0.2,0l-0.1,0l-0.2,0l-0.3,0C3,0.9,3,0.9,3,1c0,0,0,0.1,0.1,0.1l0.5,0.5L3.4,2.4c0,0,0,0,0,0
	c0,0,0,0.1,0,0.1c0,0,0.1,0.1,0.1,0.1c0,0,0.1,0,0.1,0l0.3-0.1l0,0l0.2-0.1l0.1,0l0.1,0l0.1,0l0.1,0l0.2,0.1L5,2.6c0,0,0.1,0,0.1,0
	c0,0,0.1,0,0.1-0.1c0,0,0-0.1,0-0.1c0,0,0,0,0,0L5.1,1.7l0.1-0.1l0.4-0.4l0,0c0,0,0.1-0.1,0.1-0.1C5.7,0.9,5.6,0.9,5.5,0.9z"/>
<path class="st0" d="M8.5,0.9l-0.2,0l-0.1,0l-0.2,0l-0.2,0L7.6,0.6L7.6,0.4L7.4,0.1C7.4,0,7.3,0,7.2,0c0,0-0.1,0.1-0.1,0.1L7,0.3
	L7,0.4L6.9,0.5L6.8,0.8l-0.2,0l-0.1,0l-0.2,0l-0.3,0C6,0.9,5.9,0.9,5.9,1c0,0,0,0.1,0.1,0.1l0.5,0.5L6.4,2.4c0,0,0,0,0,0
	c0,0,0,0.1,0,0.1c0,0,0.1,0.1,0.1,0.1c0,0,0.1,0,0.1,0l0.3-0.1l0,0l0.2-0.1l0.1,0l0.1,0l0.1,0l0.1,0l0.2,0.1l0.3,0.1
	c0,0,0.1,0,0.1,0c0,0,0.1,0,0.1-0.1c0,0,0-0.1,0-0.1c0,0,0,0,0,0L8,1.7l0.1-0.1l0.4-0.4l0,0c0,0,0.1-0.1,0.1-0.1
	C8.6,0.9,8.6,0.9,8.5,0.9z"/>
<path class="st0" d="M11.4,0.9l-0.2,0l-0.1,0l-0.2,0l-0.2,0l-0.1-0.2l-0.1-0.2l-0.2-0.3C10.3,0,10.3,0,10.2,0c0,0-0.1,0.1-0.1,0.1
	L10,0.3L9.9,0.4L9.9,0.5L9.8,0.8l-0.2,0l-0.1,0l-0.2,0L9,0.9C8.9,0.9,8.9,0.9,8.9,1c0,0,0,0.1,0.1,0.1l0.5,0.5L9.3,2.4c0,0,0,0,0,0
	c0,0,0,0.1,0,0.1c0,0,0.1,0.1,0.1,0.1c0,0,0.1,0,0.1,0l0.3-0.1l0,0l0.2-0.1l0.1,0l0.1,0l0.1,0l0.1,0l0.2,0.1l0.3,0.1
	c0,0,0.1,0,0.1,0c0,0,0.1,0,0.1-0.1c0,0,0-0.1,0-0.1c0,0,0,0,0,0L11,1.7l0.1-0.1l0.4-0.4l0,0c0,0,0.1-0.1,0.1-0.1
	C11.6,0.9,11.5,0.9,11.4,0.9z"/>
<path class="st0" d="M14.4,0.9l-0.2,0l-0.1,0l-0.2,0l-0.2,0l-0.1-0.2l-0.1-0.2l-0.2-0.3C13.3,0,13.2,0,13.2,0c0,0-0.1,0.1-0.1,0.1
	L13,0.3l-0.1,0.1l-0.1,0.2l-0.1,0.2l-0.2,0l-0.1,0l-0.2,0l-0.3,0c-0.1,0-0.2,0.1-0.2,0.1c0,0,0,0.1,0.1,0.1l0.5,0.5l-0.1,0.7
	c0,0,0,0,0,0c0,0,0,0.1,0,0.1c0,0,0.1,0.1,0.1,0.1c0,0,0.1,0,0.1,0l0.3-0.1l0,0l0.2-0.1l0.1,0l0.1,0l0.1,0l0.1,0l0.2,0.1l0.2,0.1
	c0,0,0.1,0,0.1,0c0,0,0.1,0,0.1-0.1c0,0,0-0.1,0-0.1c0,0,0,0,0,0L14,1.7l0.1-0.1l0.4-0.4l0,0c0,0,0.1-0.1,0.1-0.1
	C14.6,0.9,14.5,0.9,14.4,0.9z M14,1.4l-0.1,0.1V1L14,1l0.1,0l0.2,0l0,0L14,1.4z"/>
</svg>
